<svg width="100%" height="100%" id="svg" viewBox="0 0 1440 590" xmlns="http://www.w3.org/2000/svg" class="transition duration-300 ease-in-out delay-150"><defs><linearGradient id="gradient" x1="98%" y1="35%" x2="2%" y2="65%"><stop offset="5%" stop-color="#d9b3ff"></stop><stop offset="95%" stop-color="#ffb3ff"></stop></linearGradient></defs><path d="M 0,600 L 0,150 C 79.8468899521531,140.4976076555024 159.6937799043062,130.99521531100478 245,131 C 330.3062200956938,131.00478468899522 421.07177033492826,140.51674641148324 526,169 C 630.9282296650717,197.48325358851676 750.0191387559807,244.93779904306223 844,275 C 937.9808612440193,305.0622009569378 1006.8516746411483,317.73205741626793 1102,344 C 1197.1483253588517,370.26794258373207 1318.5741626794259,410.13397129186603 1440,450 L 1440,600 L 0,600 Z" stroke="none" stroke-width="0" fill="url(#gradient)" fill-opacity="0.53" class="transition-all duration-300 ease-in-out delay-150 path-0"></path><defs><linearGradient id="gradient" x1="98%" y1="35%" x2="2%" y2="65%"><stop offset="5%" stop-color="#d9b3ff"></stop><stop offset="95%" stop-color="#ffb3ff"></stop></linearGradient></defs><path d="M 0,600 L 0,350 C 91.24401913875596,350.17224880382776 182.48803827751192,350.34449760765546 283,356 C 383.5119617224881,361.65550239234454 493.2918660287081,372.79425837320576 593,389 C 692.7081339712919,405.20574162679424 782.3444976076556,426.4784688995215 885,454 C 987.6555023923444,481.5215311004785 1103.3301435406697,515.2918660287081 1198,549 C 1292.6698564593303,582.7081339712919 1366.3349282296651,616.3540669856459 1440,650 L 1440,600 L 0,600 Z" stroke="none" stroke-width="0" fill="url(#gradient)" fill-opacity="1" class="transition-all duration-300 ease-in-out delay-150 path-1"></path></svg>